<svg width="24" height="25" viewBox="0 0 24 25" fill="none" xmlns="http://www.w3.org/2000/svg">
<path d="M23.5226 5.08823C23.0982 4.56419 22.5484 4.27806 21.8829 4.27485C19.0087 4.2652 16.1378 4.27163 13.2636 4.27163C13.2411 4.27163 13.2186 4.27806 13.1639 4.28771C13.1993 4.5867 13.2314 4.88247 13.2668 5.18147C13.5883 7.75023 13.913 10.3222 14.2313 12.891C14.4756 14.8424 14.7167 16.7939 14.9514 18.7422C15.035 19.4399 14.8325 20.0475 14.3663 20.5747C13.3954 21.6775 12.4341 22.7834 11.4664 23.8894C11.4375 23.9247 11.4117 23.9633 11.3828 24.0019H22.1144C22.5098 23.9087 22.8892 23.7897 23.2107 23.5196C23.6126 23.1789 23.8634 22.7577 23.9534 22.2369C23.9598 22.1983 23.9791 22.1629 23.9887 22.1276V6.19097C23.9019 5.79553 23.783 5.41294 23.5226 5.08823ZM23.1239 10.1197C23.0371 10.2643 22.8924 10.3093 22.7349 10.3093C22.5259 10.3093 22.317 10.3093 22.0951 10.3093V16.8422C22.0951 16.8743 22.0951 16.9032 22.0951 16.9354C22.079 17.199 21.9054 17.363 21.645 17.3598C21.3846 17.3566 21.2142 17.1862 21.2142 16.9225C21.211 16.0545 21.2142 15.1865 21.2142 14.3184V13.8394H19.0634C19.0955 13.894 19.1245 13.9423 19.1534 13.9905C19.5006 14.5788 19.6164 15.2025 19.3752 15.8519C19.0634 16.6975 18.4493 17.2183 17.5524 17.3308C16.6329 17.4466 15.9159 17.064 15.4208 16.286C15.3694 16.2056 15.3404 16.0931 15.3404 15.9966C15.3404 15.8134 15.4658 15.6558 15.6073 15.6173C15.8195 15.5626 16.0156 15.6365 16.1378 15.8005C16.2374 15.9355 16.3371 16.077 16.4625 16.1831C16.8836 16.5367 17.5106 16.5753 17.9799 16.2956C18.4558 16.0127 18.6905 15.479 18.5908 14.9035C18.5008 14.3731 18.0893 13.9615 17.5395 13.8587C17.4527 13.8426 17.3627 13.8394 17.2727 13.8362C17.0122 13.8201 16.8547 13.6561 16.8547 13.3957C16.8547 13.1385 17.0122 12.9649 17.2759 12.9585C17.6906 12.9456 18.041 12.8009 18.3111 12.4827C18.7901 11.9104 18.6776 11.0038 18.0732 10.5665C17.472 10.1293 16.5814 10.2933 16.1828 10.9234C16.0702 11.1002 15.932 11.1999 15.7198 11.1935C15.4433 11.1806 15.2697 10.9459 15.3404 10.6791C15.3533 10.6276 15.379 10.5762 15.4047 10.528C15.8613 9.74672 16.7711 9.31592 17.6424 9.46059C18.5651 9.61491 19.2595 10.2643 19.446 11.1774C19.5714 11.7914 19.4749 12.3669 19.1084 12.8877C19.0955 12.907 19.0859 12.9263 19.0666 12.9553H21.2078V10.319C20.9956 10.319 20.7866 10.319 20.5776 10.319C20.3494 10.3158 20.2015 10.2193 20.1404 10.0393C20.0311 9.71779 20.2272 9.43809 20.5648 9.43487C21.2978 9.43166 22.0308 9.43487 22.7638 9.43487C22.931 9.43487 23.0693 9.49917 23.1464 9.65349C23.2204 9.80459 23.2171 9.96534 23.1239 10.1197Z" fill="white"/>
<path d="M0.00321469 9.89264C0.00321469 7.33995 0.00321469 4.78404 0.00321469 2.23135C0.00321469 1.32472 0.376153 0.620643 1.20562 0.228416C1.49818 0.0901715 1.84861 0.0162271 2.17333 0.0130122C4.54598 -0.00306273 6.92185 -0.00306263 9.29451 0.00658231C10.5066 0.00979729 11.3199 0.816757 11.4775 2.09953C11.7668 4.47862 12.0658 6.85449 12.3584 9.23036C12.6317 11.4358 12.9017 13.6445 13.1718 15.8532C13.2972 16.882 13.4161 17.914 13.5608 18.9428C13.609 19.2965 13.429 19.5215 13.2168 19.7433C13.1814 19.7787 13.101 19.7819 13.0432 19.7819C9.40382 19.7819 5.76446 19.7916 2.1251 19.7787C0.880904 19.7755 0 18.8431 0 17.5797C0 15.0141 0.00321469 12.455 0.00321469 9.89264ZM7.3398 10.6482C7.34945 10.6867 7.35909 10.7092 7.3623 10.7318C7.50376 11.4358 7.64201 12.1399 7.78668 12.8408C7.87349 13.2652 8.23999 13.5224 8.62258 13.4388C9.01802 13.352 9.2495 12.9887 9.16591 12.5675C8.70617 10.2752 8.24964 7.97973 7.78668 5.68745C7.69345 5.22128 7.44268 5.01873 6.97329 5.01552C6.55856 5.0123 6.14704 5.0123 5.73231 5.01552C5.25971 5.01873 5.01215 5.22128 4.91892 5.68745C4.45918 7.97973 3.99944 10.272 3.53969 12.5675C3.4561 12.9887 3.68758 13.352 4.08624 13.4388C4.46239 13.5191 4.82247 13.2748 4.91571 12.8633C4.9575 12.6897 4.98322 12.5128 5.01858 12.336C5.13111 11.7734 5.24363 11.2108 5.35937 10.6449C6.02809 10.6482 6.6743 10.6482 7.3398 10.6482Z" fill="white"/>
<path d="M11.8985 21.1953C11.1237 22.0505 10.381 22.8703 9.63196 23.6837C9.59338 23.7255 9.47442 23.7352 9.41977 23.7062C8.87322 23.404 8.50993 22.9507 8.37812 22.3398C8.29774 21.9701 8.26559 21.5875 8.21094 21.1985C9.43906 21.1953 10.6447 21.1953 11.8985 21.1953Z" fill="white"/>
<path d="M5.64258 9.22363C5.82905 8.28807 6.0123 7.3718 6.19877 6.43945C6.29844 6.43945 6.39489 6.43945 6.50741 6.43945C6.69066 7.36537 6.87713 8.28485 7.0636 9.22363C6.58778 9.22363 6.13126 9.22363 5.64258 9.22363Z" fill="white"/>
</svg>
