<svg width="28" height="28" viewBox="0 0 28 28" fill="none" xmlns="http://www.w3.org/2000/svg">
<rect width="28" height="28" rx="4" fill="#673AB7"/>
<path d="M20.8977 20.3246C20.9659 20.4883 21 20.6248 21 20.7339C21 20.9932 20.8908 21.2115 20.6725 21.3889C20.4678 21.5663 20.2359 21.655 19.9766 21.655C19.7992 21.655 19.6287 21.6072 19.4649 21.5117C19.3148 21.4025 19.1988 21.2524 19.117 21.0614L17.7661 17.9912H10.2749L8.92398 21.0614C8.84211 21.2524 8.7193 21.4025 8.55556 21.5117C8.39181 21.6072 8.22125 21.655 8.04386 21.655C7.77096 21.655 7.52534 21.5663 7.30702 21.3889C7.10234 21.2115 7 20.9932 7 20.7339C7 20.6248 7.03411 20.4883 7.10234 20.3246L12.8743 7.69591C12.9698 7.47758 13.1199 7.30702 13.3246 7.18421C13.5429 7.0614 13.768 7 14 7C14.232 7 14.4503 7.0614 14.655 7.18421C14.8733 7.30702 15.0302 7.47758 15.1257 7.69591L20.8977 20.3246ZM11.0322 16.3129H17.0292L14.0205 9.53801L11.0322 16.3129Z" fill="white"/>
</svg>
