<svg width="28" height="28" viewBox="0 0 28 28" fill="none" xmlns="http://www.w3.org/2000/svg">
<rect width="28" height="28" rx="4" fill="#673AB7"/>
<path d="M21.1063 7H16.6379C16.4009 7 16.1736 7.08429 16.006 7.23431C15.8384 7.38434 15.7443 7.58783 15.7443 7.8C15.7443 8.01217 15.8384 8.21566 16.006 8.36569C16.1736 8.51571 16.4009 8.6 16.6379 8.6H17.9785V13.4H13.5548C14.146 12.7116 14.4682 11.8683 14.4717 11C14.4716 10.1195 14.147 9.26361 13.5482 8.56507C12.9494 7.86653 12.1099 7.36437 11.1598 7.13648C10.2097 6.90858 9.20218 6.96768 8.29344 7.30462C7.38469 7.64155 6.62553 8.23748 6.13368 9C6.07074 9.09107 6.02887 9.19252 6.01055 9.29835C5.99222 9.40417 5.99782 9.51221 6.027 9.61607C6.05619 9.71992 6.10837 9.81747 6.18045 9.90293C6.25253 9.9884 6.34305 10.06 6.44663 10.1136C6.55022 10.1672 6.66476 10.2016 6.78348 10.2148C6.90219 10.228 7.02266 10.2197 7.13774 10.1905C7.25282 10.1612 7.36017 10.1116 7.45343 10.0445C7.54668 9.97745 7.62395 9.8943 7.68064 9.8C7.91593 9.43518 8.25434 9.13223 8.66187 8.92159C9.0694 8.71094 9.53168 8.60003 10.0023 8.6C10.4728 8.59997 10.9352 8.71081 11.3427 8.9214C11.7503 9.13199 12.0887 9.43489 12.3241 9.79968C12.5595 10.1645 12.6834 10.5783 12.6835 10.9995C12.6836 11.4208 12.5598 11.8347 12.3246 12.1995C12.0894 12.5644 11.7511 12.8674 11.3436 13.0781C10.9361 13.2889 10.4739 13.3999 10.0033 13.4C9.76628 13.4 9.53897 13.4843 9.37137 13.6343C9.20378 13.7843 9.10962 13.9878 9.10962 14.2C9.10962 14.4122 9.20378 14.6157 9.37137 14.7657C9.53897 14.9157 9.76628 15 10.0033 15C10.4739 15.0001 10.9361 15.1111 11.3436 15.3219C11.7511 15.5326 12.0894 15.8356 12.3246 16.2005C12.5598 16.5653 12.6836 16.9792 12.6835 17.4005C12.6834 17.8217 12.5595 18.2355 12.3241 18.6003C12.0887 18.9651 11.7503 19.268 11.3427 19.4786C10.9352 19.6892 10.4728 19.8 10.0023 19.8C9.53168 19.8 9.0694 19.6891 8.66187 19.4784C8.25434 19.2678 7.91593 18.9648 7.68064 18.6C7.55839 18.4231 7.364 18.2958 7.13867 18.2451C6.91334 18.1943 6.67479 18.2241 6.4736 18.3282C6.27241 18.4322 6.1244 18.6023 6.06094 18.8024C5.99749 19.0025 6.02358 19.2168 6.13368 19.4C6.62553 20.1625 7.38469 20.7585 8.29344 21.0954C9.20218 21.4323 10.2097 21.4914 11.1598 21.2635C12.1099 21.0356 12.9494 20.5335 13.5482 19.8349C14.147 19.1364 14.4716 18.2805 14.4717 17.4C14.4682 16.5317 14.146 15.6884 13.5548 15H17.9785V20.6C17.9785 20.8122 18.0726 21.0157 18.2402 21.1657C18.4078 21.3157 18.6351 21.4 18.8721 21.4C19.1092 21.4 19.3365 21.3157 19.5041 21.1657C19.6717 21.0157 19.7658 20.8122 19.7658 20.6V8.6H21.1063C21.3433 8.6 21.5707 8.51571 21.7382 8.36569C21.9058 8.21566 22 8.01217 22 7.8C22 7.58783 21.9058 7.38434 21.7382 7.23431C21.5707 7.08429 21.3433 7 21.1063 7Z" fill="white"/>
</svg>
